<?xml version="1.0" encoding="UTF-8"?>
<svg width="176px" height="39px" viewBox="0 0 176 39" version="1.1" xmlns="http://www.w3.org/2000/svg" xmlns:xlink="http://www.w3.org/1999/xlink">
    <title>Gyldendal logo</title>
    <g id="Layouts" stroke="none" stroke-width="1" fill="none" fill-rule="evenodd">
        <g id="Frontpage-(pending-review)" transform="translate(-30.000000, -18.000000)" fill="black" fill-rule="nonzero">
            <g id="Logo-/-Stretchy-/-Gyldendal-logo" transform="translate(30.000000, 18.000000)">
                <path d="M52.5273879,18.111145 C52.7481053,18.201495 52.9665406,18.315895 52.9665406,18.633095 C52.9665406,18.633095 52.9362205,18.839795 52.9404588,18.82062 L52.6701859,20.01272 C52.6183482,20.243795 52.4497945,20.374445 52.2098417,20.374445 L51.9545659,20.342595 L51.9891243,20.35137 L51.5910505,20.256795 C50.8451104,20.072845 49.4647299,19.730295 47.7413735,19.730295 C44.3970319,19.730295 43.3772326,20.911995 43.3772326,24.79022 C43.3772326,28.68827 44.3500846,29.817645 47.7240943,29.817645 C48.649673,29.817645 49.4953761,29.68017 49.8132483,29.61972 L49.8132483,26.426595 C49.2965022,26.36647 47.6465009,26.16367 47.6465009,26.16367 C47.3931812,26.12922 47.218107,25.96737 47.218107,25.76262 L47.218107,24.306945 C47.218107,24.08107 47.4127426,23.90882 47.6680184,23.90882 L52.4214305,23.90882 C52.6982238,23.90882 52.887317,24.083345 52.887317,24.34822 L52.887317,29.701295 C52.887317,30.79687 52.7067004,31.33767 51.6386498,31.667545 C50.6221108,31.950295 48.764433,32.126445 47.6246574,32.126445 C42.1324777,32.126445 40.1851436,30.193345 40.1851436,24.73627 C40.1851436,19.471595 42.237457,17.326595 47.2787472,17.326595 C49.8448725,17.326595 51.7964448,17.873895 52.5273879,18.111145 Z M68.4276817,17.57015 C68.6979546,17.57015 68.8557496,17.800575 68.8557496,18.026775 L68.8342321,18.161 L68.8215172,18.212675 C68.8215172,18.212675 63.5379921,26.27105 63.4815902,26.3536 L63.4815902,31.4262 C63.4815902,31.6888 63.2696754,31.881525 62.9756028,31.881525 L60.830373,31.881525 C60.5555358,31.881525 60.343621,31.6888 60.343621,31.4262 L60.343621,26.37505 C60.287219,26.288275 54.9410975,18.25395 54.9410975,18.25395 L54.9322949,18.25395 L54.8739368,18.0466 C54.8739368,17.800575 55.1272565,17.57015 55.31961,17.57015 L57.8521549,17.57015 C58.154704,17.57015 58.2782667,17.710225 58.4295412,17.916925 C58.4295412,17.916925 61.704114,23.311275 61.9890579,23.772775 C62.6662072,22.62585 65.4341406,17.92375 65.4341406,17.92375 C65.5609635,17.69495 65.6851781,17.57015 65.9730562,17.57015 L68.4276817,17.57015 Z M81.0559784,29.3995 C81.3301635,29.3995 81.5424044,29.6088 81.5424044,29.87595 L81.5424044,31.4067 C81.5424044,31.671575 81.3301635,31.881525 81.0559784,31.881525 L71.7346612,31.881525 C71.4568898,31.881525 71.2479092,31.6888 71.2479092,31.4262 L71.2479092,18.311475 C71.2479092,18.197075 71.2932263,17.92375 71.6945604,17.8763 L71.7066232,17.8763 L73.9578105,17.531475 C74.222541,17.531475 74.3862044,17.757675 74.3862044,17.96665 L74.3862044,29.3995 L81.0559784,29.3995 Z M90.0297227,29.3756775 C92.7582073,29.3756775 93.8976569,28.8930525 93.8976569,24.6973025 C93.8976569,20.5928775 92.882422,19.8619525 90.0297227,19.8619525 L87.2109298,19.8619525 L87.2109298,29.3929025 C87.8489563,29.3909525 90.0297227,29.3756775 90.0297227,29.3756775 Z M90.3609618,17.5700525 C95.2659745,17.5700525 97.09105,19.5060775 97.09105,24.7171275 C97.09105,29.9385775 95.2659745,31.8814275 90.3609618,31.8814275 L84.5584085,31.8814275 C84.2865055,31.8814275 84.0768728,31.6714775 84.0768728,31.4066025 L84.0768728,18.0465025 C84.0768728,17.7790275 84.2865055,17.5700525 84.5584085,17.5700525 L90.3609618,17.5700525 Z M110.256502,29.3972575 C110.524819,29.3972575 110.743254,29.6026575 110.743254,29.8519325 L110.743254,31.4067325 C110.743254,31.6716075 110.531013,31.8815575 110.256502,31.8815575 L100.821077,31.8815575 C100.543957,31.8815575 100.314763,31.6673825 100.314763,31.4067325 L100.314763,18.0466325 C100.314763,17.7833825 100.543957,17.5701825 100.821077,17.5701825 L110.23531,17.5701825 C110.513734,17.5701825 110.724018,17.7661575 110.724018,18.0268075 L110.724018,19.5016575 C110.724018,19.7759575 110.52058,19.9761575 110.23531,19.9761575 L103.431215,19.9761575 L103.431215,23.2966825 L109.949714,23.2966825 C110.217705,23.2966825 110.42962,23.5056575 110.42962,23.7705325 L110.42962,25.2642325 C110.42962,25.5187075 110.215423,25.7192325 109.949714,25.7192325 L103.431215,25.7192325 L103.431215,29.3972575 L110.256502,29.3972575 Z M138.276627,29.3972575 C141.003482,29.3972575 142.141301,28.8928575 142.141301,24.6974325 C142.141301,20.5930075 141.127044,19.8620825 138.276627,19.8620825 L135.45653,19.8620825 L135.45653,29.4170825 C136.092275,29.4105825 138.272063,29.3972575 138.276627,29.3972575 Z M138.605584,17.5701825 C143.510597,17.5701825 145.331434,19.5058825 145.331434,24.7172575 C145.331434,29.9387075 143.510597,31.8815575 138.605584,31.8815575 L132.802705,31.8815575 C132.536996,31.8815575 132.320517,31.6716075 132.320517,31.4067325 L132.320517,18.0466325 C132.320517,17.7791575 132.536996,17.5701825 132.802705,17.5701825 L138.605584,17.5701825 Z M175.427966,29.3995 C175.702803,29.3995 175.917,29.6088 175.917,29.87595 L175.917,31.4067 C175.917,31.671575 175.702803,31.881525 175.427966,31.881525 L166.106975,31.881525 C165.832137,31.881525 165.618267,31.6888 165.618267,31.4262 L165.618267,18.486 C165.618267,18.369975 165.600335,17.9582 166.069808,17.8763 L166.076655,17.8763 L168.330124,17.531475 C168.596159,17.531475 168.756236,17.757675 168.756236,17.96665 L168.756236,29.3995 L175.427966,29.3995 Z M117.559868,21.93178 L117.691908,31.37433 C117.691908,31.669755 117.456519,31.885555 117.136039,31.885555 L115.094484,31.885555 C114.791609,31.885555 114.560459,31.66553 114.560459,31.37433 L114.560459,18.08963 C114.560459,17.813705 114.815735,17.58068 115.111763,17.58068 L117.782868,17.58068 C118.048903,17.58068 118.258861,17.79648 118.377534,17.98823 C118.377534,17.98823 123.693335,25.56853 124.882992,27.273805 C124.859192,24.94323 124.777361,18.628805 124.777361,18.626205 C124.777361,18.468905 124.739868,18.046405 125.386697,17.925505 L127.331097,17.58068 C127.900007,17.58068 127.943368,17.98628 127.943368,18.10913 L127.943368,31.37433 C127.943368,31.669755 127.707653,31.885555 127.387825,31.885555 L125.114468,31.885555 C124.631954,31.885555 124.456554,31.669755 124.294521,31.44388 C124.294521,31.44388 117.674628,22.207055 117.559868,21.93178 Z M152.382231,25.9674675 L157.477967,25.9674675 C157.086413,24.8702675 155.254491,20.0752175 155.256448,20.0752175 C155.191569,19.9049175 155.090176,19.8964675 154.934337,19.8964675 L154.929773,19.8964675 C154.771978,19.8964675 154.670585,19.9049175 154.60538,20.0752175 C154.60538,20.0752175 152.776066,24.8702675 152.382231,25.9674675 Z M162.789204,31.1375675 C162.789204,31.1375675 162.836477,31.2792675 162.836477,31.3852175 C162.836477,31.7430425 162.490893,31.9243925 161.802985,31.9243925 L160.33034,31.9243925 C159.958348,31.9243925 159.601353,31.6913675 159.495396,31.3920425 C159.495396,31.3920425 158.427019,28.6100425 158.347144,28.4039925 L158.299544,28.4039925 L151.56261,28.4039925 L151.515336,28.4039925 C151.432852,28.6100425 150.36252,31.3920425 150.36252,31.3920425 C150.262757,31.6913675 149.90185,31.9243925 149.529858,31.9243925 L148.056887,31.9243925 C147.371587,31.9243925 147.01883,31.7430425 147.01883,31.3852175 C147.01883,31.2792675 147.070668,31.1375675 147.070668,31.1375675 L151.943078,18.9435675 C152.371472,17.8479925 153.394206,17.2681925 154.908255,17.2681925 L154.953898,17.2681925 C156.46534,17.2681925 157.492964,17.8479925 157.916793,18.9435675 L162.789204,31.1375675 Z" id="logo-type"></path>
                <path d="M4.01325508,31.254275 C3.41635428,31.171725 2.67731872,31.015075 1.8649338,30.7112 C1.22630536,30.47265 0.687106063,30.1964 0.25026987,29.9364 L0.177572503,29.8909 C0.124760964,29.858075 0.0843373159,29.805425 0.0683634551,29.740425 C0.0354377421,29.607825 0.116937032,29.4736 0.249943873,29.4411 C1.86786777,29.070925 4.0452028,28.396875 6.40281425,27.109225 C8.611445,25.902825 10.2707705,24.544325 11.4274085,23.443875 C10.556996,23.474425 9.20247785,23.413975 7.66279327,22.88325 C6.45529979,22.466925 5.5359878,21.900125 4.91268124,21.443825 L4.83085595,21.385 C4.78619434,21.352825 4.75196464,21.3057 4.73696877,21.248175 C4.70208707,21.1172 4.78065239,20.98265 4.91235524,20.9482 C6.087575,20.65765 8.15015902,19.983925 10.2101351,18.3352 C12.051693,16.861325 13.1115098,15.2321 13.6712469,14.20835 C13.0723901,14.227525 12.1250424,14.178775 11.0678336,13.768625 C10.4386591,13.52455 9.94151341,13.2184 9.5754186,12.950925 L9.54575286,12.930125 C9.51250115,12.906075 9.4841394,12.874875 9.46327558,12.83685 C9.38829623,12.700675 9.43849979,12.529725 9.5750926,12.4553 C11.1268391,11.5947 12.6935814,10.683725 13.6454931,9.31385 C15.269285,7.120425 15.8710757,3.065075 16.0924278,0.52715 C16.0924278,0.329875 16.2472765,0.169975 16.4379848,0.169975 C16.6290191,0.169975 16.7838678,0.329875 16.7838678,0.52715 C17.0052198,3.065075 17.6066846,7.120425 19.2308025,9.31385 C20.1827142,10.683725 21.6995789,11.5947 23.2513254,12.4553 C23.3882442,12.529725 23.4381218,12.700675 23.3631424,12.83685 C23.3422786,12.874875 23.3139169,12.906075 23.2809912,12.930125 L23.2513254,12.950925 C22.8852306,13.2184 22.3880849,13.52455 21.7589104,13.768625 C20.7013756,14.178775 19.7543539,14.227525 19.1554971,14.20835 C19.6708986,15.016625 20.6394362,16.3072 22.2531221,17.420325 C24.0232867,18.6407 25.7367278,19.07295 26.7098293,19.2439 C26.8385982,19.26535 26.9253134,19.3869 26.9037976,19.51495 C26.8930397,19.577675 26.858484,19.63065 26.8108884,19.66575 L26.7098293,19.739525 C26.1275983,20.165275 25.2852217,20.683325 24.1879153,21.070075 C22.6863723,21.5995 21.3615199,21.653125 20.5194692,21.619325 C21.5300604,22.4874 23.0201934,23.5833 25.0100801,24.49395 C26.9308553,25.37275 28.8767324,25.8284 30.1680071,26.032825 C30.296776,26.054275 30.3834913,26.175825 30.3619754,26.303875 C30.3515435,26.3666 30.3169878,26.419575 30.2693923,26.45435 L30.1680071,26.52845 C29.3940899,27.09525 28.2446239,27.8044 26.7303671,28.32115 C24.8421915,28.9653 23.183518,29.038425 22.1158773,29.000725 L22.1223973,29.064425 L27.9147148,31.472675 C28.0653255,31.536375 28.1350889,31.7096 28.0711934,31.85975 C28.0395717,31.9332 27.9818702,31.987475 27.9134108,32.016075 L27.8540793,32.04825 C27.5724178,32.19775 27.2526145,32.34985 26.8956477,32.4922 C26.5191209,32.64235 26.163784,32.75675 25.8416988,32.844825 C26.0936946,33.125625 26.3541664,33.409025 26.623114,33.693725 C27.8576653,35.000225 29.0729827,36.128625 30.2136467,37.095825 C30.3310057,37.1956 30.3450236,37.37175 30.2446165,37.4894 C30.1950649,37.5466 30.1275835,37.5791 30.0578201,37.5856 C28.8431547,37.680175 27.1808952,37.67985 25.1848146,37.2515 C23.4840874,36.88685 22.0950135,36.31745 21.0596465,35.795175 C21.2011293,36.232625 21.3872737,36.721425 21.6337275,37.241425 C21.8707274,37.74095 22.1207673,38.178725 22.3607012,38.554425 C22.4444824,38.68605 22.4053628,38.8609 22.2733339,38.944425 C22.2084605,38.9857 22.1334812,38.997075 22.0637178,38.982775 C20.6671459,38.588875 18.8154821,37.9041 16.7460521,36.575175 C14.695204,35.25795 13.2513626,33.8039 12.3160767,32.706375 C12.3454165,33.1071 12.4057259,33.570875 12.5217809,34.077875 C12.6498978,34.637525 12.8161564,35.121125 12.9811109,35.520875 C11.9111882,36.10815 10.3389039,36.821525 8.33336943,37.2515 C6.33761482,37.67985 4.6753553,37.680175 3.46068989,37.5856 C3.3906005,37.5791 3.32311909,37.5466 3.27389352,37.4894 C3.17348639,37.37175 3.18717827,37.1956 3.30486325,37.095825 C4.44552731,36.128625 5.66084472,35.000225 6.89506996,33.693725 C7.94445481,32.582875 8.86311481,31.49575 9.66408983,30.467125 L9.67745571,30.393025 C8.98373376,30.843475 8.13190318,31.32415 7.12359397,31.75445 C5.79645953,32.320275 4.57820815,32.6365 3.58848078,32.819475 C3.50958946,32.83605 3.42450421,32.82305 3.35082885,32.7769 C3.20119615,32.682 3.15653454,32.484075 3.25172571,32.334575 L4.01325508,31.254275 Z" id="logo-shape"></path>
            </g>
        </g>
    </g>
</svg>